<?xml version="1.0" encoding="UTF-8"?>
<svg id="Layer_1" data-name="Layer 1" xmlns="http://www.w3.org/2000/svg" viewBox="0 0 256 256">
  <path d="M216.52,132.87l-5.31-4.11c-8.8-5.52-17.89-3.78-26.68.68.97-17.6-13.63-32.39-28.76-38.95-24.81-10.76-57.31-6.59-75.22,14.69-9.05,10.75-9.34,30.81-28.62,27.44-21.75-3.8-6.94-32.8.71-43.35,22.13-30.54,65.03-41.2,100.7-32.34,35.34,8.77,65.14,37.51,63.18,75.95Z"/>
  <path d="M39.39,132.88c9.25,7.96,22.69,7.85,31.99,0,1.66,11.49,10.5,21.59,19.83,27.89,25.34,17.13,65.12,13.87,85.04-10.17,4.41-5.32,6.84-12.36,12.88-16.26,9.23-5.95,25.72-1.96,25.07,10.74-.25,5.01-6.93,16.61-10.01,20.89-42.59,59.03-154.48,44.1-164.8-33.09Z"/>
  <path d="M101.1,119.16c.84-.83,2.48,2.76,3.15,3.42,9.83,9.9,25.43-4.21,16.83-15.12l-5.42-4.3c21.23-10.25,44.17,7.88,39.46,30.89-4.19,20.48-28.79,28.95-44.89,15.69-8.9-7.32-12.34-19.5-9.13-30.58Z"/>
</svg>