<?xml version="1.0" encoding="UTF-8"?>
<svg id="Layer_1" data-name="Layer 1" xmlns="http://www.w3.org/2000/svg" viewBox="0 0 256 256">
  <path d="M64.17,195.26c1.87-46.2,60.11-26.02,89.99-30.25,47.66-2.91,45.39-69.61,4.39-73.38-25.21-.76-69.26,7.14-68.62-30.65l63.62-.25c5.93-.02,11.87.56,17.63,1.98,65.7,16.22,65.62,114-.04,130.48-5.76,1.44-11.69,2.05-17.62,2.05h-89.35Z"/>
  <path d="M120.98,145.82c-6.65-6.57-9.23-16.61-6.35-25.58,11.47,16.02,30.22-4.14,13.72-14.58,19.08-9.49,40.18,9.66,33.76,29.83-5.56,17.44-28.05,23.24-41.12,10.33Z"/>
  <path d="M99.49,112.95c-4.19,38.93-36.48,29.08-63.9,30.27-.07-2.7.23-5.35.86-7.9,3.27-13.27,15.53-22.37,29.2-22.37,11.26,0,33.84,0,33.84,0Z"/>
</svg>