<?xml version="1.0" encoding="UTF-8"?>
<svg id="Layer_1" data-name="Layer 1" xmlns="http://www.w3.org/2000/svg" viewBox="0 0 256 256">
  <path d="M102.49,119.12c12.07,17.09,32.4-5.01,13.73-15.38,22.84-10.59,45.86,11.86,35.98,35.16-14.05,30.33-60.34,12.04-49.72-19.77Z"/>
  <path d="M188.56,51.01c25.58,19.68-7.95,45.48-22.87,59.05-.63.49-1.57,1.44-2.41,1.28-8.15-6.8-10.21-17.46-6.26-26.64,1.23-2.86,3.11-5.4,5.32-7.6l26.22-26.09Z"/>
  <path d="M92.32,143.95c24.51,24.24-11.91,44.37-25.84,60.77-26.56-22.9,12.22-45.03,25.84-60.77Z"/>
  <path d="M158.4,154.98c3.71-.54,7.02-.3,10.18.66,3.6,1.1,6.81,3.2,9.47,5.87l27.06,27.12c-3.07,4.48-7.66,7.32-12.67,8.44-7.47,1.68-15.28-.87-20.7-6.28l-27.49-27.43c3.55-3.73,8.91-7.62,14.15-8.38Z"/>
  <path d="M91.49,114.17c-3.05,36.01-37.86,22.98-62.1,25.28-.3-2.44-.15-4.92.37-7.32,2.32-10.61,12.05-17.96,22.91-17.96,11.39,0,38.82,0,38.82,0Z"/>
  <path d="M50.99,68.39c-1.52-1.29,2.46-4.68,3.66-5.62,7.15-5.63,17.3-6.49,24.74-1.3.94.66,1.79,1.43,2.6,2.24l28.73,28.75c-22.63,24.3-43.63-9.3-59.72-24.07Z"/>
  <path d="M226.68,116.37c.17,1.9.08,3.82-.24,5.72-1.91,11.1-11.86,19.01-23.12,19.01-12.58,0-38.74,0-38.74,0-.05-1.6.08-3.21.36-4.79,2.08-11.66,12.57-19.94,24.41-19.94s37.33,0,37.33,0Z"/>
  <path d="M140.95,91.64c-10.89.36-21.76-7-24.78-17.39-.36-1.25-.5-2.55-.5-3.85,0-7.85,0-39.76,0-39.76,35.81-.9,23.06,38.61,25.28,61Z"/>
  <path d="M139.85,225.18c-2.79.39-5.6.19-8.28-.49-9.81-2.52-16.45-11.67-16.45-21.79,0-11.45,0-38.71,0-38.71,10-.49,20.23,6.2,23.76,15.51.7,1.83.97,3.8.97,5.76,0,8.8,0,39.73,0,39.73Z"/>
</svg>