<?xml version="1.0" encoding="UTF-8"?>
<svg id="Layer_1" data-name="Layer 1" xmlns="http://www.w3.org/2000/svg" viewBox="0 0 256 256">
  <path d="M198.88,124.41c-24.43-1.69-33.29-19.37-33.25-41.7-6.79-32.94-50.24-41.19-69.27-13.24-7.56,11.1-4.91,17.23-7.13,28.95-2.91,15.39-16.9,25.48-32.17,25.99.6-20.49-2.59-40.86,5.31-60.32,21.69-53.44,97.3-59.45,126.67-9.77,13.55,20.38,9.33,47.79,9.85,70.09Z"/>
  <path d="M198.88,131.88c-.4,22.38,3.58,50.63-10.45,70.72-28.31,44.21-92.52,44.08-120.68-.23-13.88-21.84-10.35-45.79-10.69-70.49,13.41-.81,27.76,8.85,31.29,21.9,2.57,9.49.42,18.29,5.07,27.89,15.94,32.93,64.97,27.41,72.21-8.7.14-21.48,8.76-41.11,33.25-41.09Z"/>
  <path d="M116.77,101.41c22.14-9.45,43.77,9.58,37.65,32.97-2.32,8.86-11.19,17.14-20.08,19.11-20.29,4.5-39.69-15.29-32.19-35.29,7.61,13.01,26.7,3.43,20.96-10.4-1.47-3.54-3.78-4.06-6.34-6.4Z"/>
</svg>